<svg viewBox="0 0 156 82" xmlns="http://www.w3.org/2000/svg" fill-rule="evenodd" clip-rule="evenodd" stroke-linejoin="round" stroke-miterlimit="2"><path d="M35.99 52.843l-.93-.683c-.49-.835-.73-4.947-.73-12.336v-3.751c-.03-.952.05-1.904.24-2.837.3-1.238 1.88-4.077 4.74-8.518 5.08-7.873 9.76-14.522 14.03-19.947V3.447l-.41-.381h-5.92c-.83 1.467-1.49 2.616-1.98 3.447l-4.5 7.532c-4.49 7.243-7.53 12.062-9.12 14.459l-5.31-9.917c-3.87-7.243-6.95-11.909-9.24-14a14.23 14.23 0 00-3.77-2.462C11.22 2.63 6.99 3.488.4 4.7l-.4.418v2.117l.44.416c1.02-.058 2.04.025 3.04.246.93.549 1.78 1.232 2.52 2.027 2.56 2.447 6.01 7.09 10.33 13.927 4.24 6.712 6.36 10.548 6.37 11.509v4.467c0 7.393-.25 11.505-.73 12.336l-.94.683c-1.64.283-3.31.448-4.98.493l-.4.375v2.577l.36.341c2.54-.152 6.7-.228 12.48-.229 5.65 0 9.81.076 12.49.229l.4-.381v-2.537l-.4-.375a35.14 35.14 0 01-4.99-.493M67.61 47.354a7.552 7.552 0 01-6.53 3.56c-3.21 0-4.82-1.717-4.82-5.15a5.383 5.383 0 012.33-4.788c1.55-1.047 4.56-2.024 9.02-2.933v9.311zm43.73-20.781l.28-6.736a8.025 8.025 0 00-2.88-.454 6.516 6.516 0 00-4.54 1.513c-2.37 2.421-4.4 4.541-6.07 6.36l.08-7.419-.89-.493a74.153 74.153 0 01-15.36 3.141l-.41.416v2.121l.41.377c2.02.075 3.2.141 3.52.189.7.018 1.35.37 1.74.945.41.761.61 3.664.61 8.709v5.411c0 3.762-.09 7.283-.28 10.562-.05.986-.36 1.59-.89 1.815-1.57.438-3.2.63-4.83.568l-.03.028a9.077 9.077 0 01-3.31-.48 2.483 2.483 0 01-.95-1.986c-.14-1.052-.2-3.482-.2-7.29 0-1.183.06-3.543.2-7.078.08-2.119.12-3.658.12-4.617 0-3.914-.83-6.816-2.48-8.706-2.26-2.6-6.06-3.9-11.38-3.9-1.24-.021-2.47.068-3.69.266-2.24.4-5.6 2.142-10.05 5.225l-.2 4.463.28.531 2.06.454.53-.264 1.54-3.522a8.927 8.927 0 014.98-1.21 9.38 9.38 0 014.95 1.249c2.27 1.363 3.4 4.051 3.41 8.064-8.76 1.439-14.58 3.053-17.47 4.844-2.68 1.641-4.02 4.429-4.01 8.366a9.707 9.707 0 002.41 7c1.6 1.693 3.9 2.54 6.9 2.539.55.004 1.09-.022 1.63-.077a5.576 5.576 0 002.67-.793l7.87-5.6-.37 5.069.37.418c2.1-.125 4.3-.188 6.6-.189 2.82 0 5.33.058 7.53.174l.1.09c2.54-.178 6.23-.266 11.06-.264 3.92 0 7.87.076 11.84.229l.4-.381v-2.307l-.4-.343c-3.24-.1-5.12-.287-5.64-.568a2.05 2.05 0 01-.85-1.815c-.18-3.28-.28-5.841-.28-7.684v-8.858a6.12 6.12 0 011.22-4.128 6.378 6.378 0 015.02-2.271 6.202 6.202 0 015.27 2.575l1.7-.491c.08-1.414.13-2.676.16-3.786M139.349 36.529c0 5.527-.04 8.466-.12 8.818a5.746 5.746 0 01-2.64 3.256 9.227 9.227 0 01-5.34 1.707 7.653 7.653 0 01-5.56-2.01c-2.62-2.519-3.92-6.391-3.93-11.618-.02-2.252.28-4.497.9-6.663.73-3.316 3.82-5.615 7.21-5.375 1.32-.009 2.63.196 3.89.608 2.19.894 4.11 2.326 5.59 4.162v7.115zm15.6 17.334a25.051 25.051 0 01-4.05-.489 1.4 1.4 0 01-.89-.8c-.36-.703-.53-4.603-.53-11.7V28.656c0-10.875.12-19.026.36-24.453.12-2.4.17-3.648.17-3.745l-.9-.458a81.214 81.214 0 01-15.68 3.141l-.4.418v2.082l.4.416c2.06.077 3.3.153 3.73.229.75.022 1.41.504 1.66 1.21.36 1.187.53 5.099.53 11.734v2.119a18.704 18.704 0 00-7.86-1.665c-1.68-.052-3.36.204-4.95.756a43.63 43.63 0 00-7.09 4.128 26.754 26.754 0 00-5.02 3.9c-2.19 2.8-3.29 6.712-3.29 11.736 0 5.173 1.42 9.387 4.26 12.642a14.126 14.126 0 0011.18 4.884c1.43.079 2.86-.114 4.21-.568a38.15 38.15 0 004.39-3.485c1.81-1.562 3.2-2.722 4.17-3.479 0 2.901-.06 4.97-.16 6.206l.36.264c3.46-.178 6.2-.266 8.23-.264 2.13 0 4.53.086 7.17.264l.41-.377v-2.044l-.41-.384zM38.89 74.22a3.662 3.662 0 00-1-2.813 4.142 4.142 0 00-2.95-.943h-1.69v7.631h1.52c2.75 0 4.13-1.292 4.12-3.875m.71-.024a4.33 4.33 0 01-1.22 3.312 5.081 5.081 0 01-3.57 1.123h-2.2v-8.7h2.49a4.702 4.702 0 013.35 1.09A4.2 4.2 0 0139.6 74.2M43.97 78.629h-.62v-6.472h.62v6.472zm-.71-8.269c0-.381.13-.572.4-.572l.31.15c.08.126.11.273.1.422a.772.772 0 01-.1.422l-.31.156c-.27 0-.4-.193-.4-.578M48.39 74.177c-.02.441.15.87.48 1.165.78.548 1.82.548 2.6 0 .32-.311.49-.747.46-1.191.03-.462-.14-.917-.47-1.24a1.91 1.91 0 00-1.31-.414c-.47-.026-.94.133-1.29.443-.32.326-.5.776-.47 1.236m-.52 5.549c0 .889.7 1.333 2.1 1.333 1.79 0 2.69-.542 2.69-1.626a.903.903 0 00-.42-.846 2.681 2.681 0 00-1.37-.261h-1.12c-1.25 0-1.88.467-1.88 1.4m5.54-7.567v.411l-1.41.083c.36.403.56.924.56 1.465.02.578-.22 1.135-.66 1.515-.49.407-1.12.615-1.76.581-.22.005-.44-.007-.66-.036a1.56 1.56 0 00-.56.433.804.804 0 00-.2.531c-.02.186.08.362.24.452.27.115.55.164.84.143h1.19c.6-.038 1.2.111 1.71.426.4.291.62.767.59 1.26.02.647-.31 1.255-.87 1.581-.77.412-1.63.604-2.5.555-.7.041-1.4-.122-2-.471a1.57 1.57 0 01-.71-1.321c0-.407.16-.799.44-1.094.32-.312.74-.521 1.18-.6a1.181 1.181 0 01-.49-.354.842.842 0 01-.19-.527c0-.431.29-.812.88-1.142-.38-.14-.71-.395-.93-.729a2.152 2.152 0 01.31-2.7c.5-.411 1.12-.621 1.76-.587.36-.012.71.031 1.05.126l2.19-.001zM57.24 78.629h-.62v-6.472h.62v6.472zm-.71-8.269c0-.381.14-.572.4-.572l.31.15a.7.7 0 01.11.422.702.702 0 01-.11.422l-.31.156c-.26 0-.4-.193-.4-.578M63.139 78.225c.35.003.7-.03 1.04-.1v.476c-.34.101-.7.149-1.05.143-.49.041-.98-.125-1.34-.458a2.072 2.072 0 01-.43-1.44v-4.18h-1.01v-.345l1.01-.268.32-1.465h.32v1.571h2.01v.512h-2.01v4.1c-.03.387.06.773.27 1.1.22.251.54.383.87.356M69.092 78.214c.63.035 1.26-.178 1.73-.593.44-.433.67-1.033.63-1.647v-.636l-1.19.047a4.73 4.73 0 00-2.06.426c-.4.226-.64.662-.61 1.122-.02.358.12.706.39.943.32.243.71.363 1.11.338m2.52.416l-.16-1.024h-.05c-.28.368-.65.669-1.06.883-.4.181-.84.27-1.29.259a2.29 2.29 0 01-1.56-.488 1.69 1.69 0 01-.56-1.35c-.02-.606.3-1.172.83-1.47a4.734 4.734 0 012.41-.555l1.3-.036v-.428c.04-.497-.1-.99-.4-1.393-.33-.341-.8-.514-1.27-.471-.69.013-1.36.184-1.97.5l-.24-.512c.7-.322 1.46-.492 2.23-.5.61-.048 1.22.151 1.69.553.4.478.61 1.1.55 1.727v4.3l-.45.005z" fill="#fff" fill-rule="nonzero"/><path fill="#fff" d="M76.097 69.366h.623v9.263h-.623z"/><path d="M87.054 75.011h3.29l-1.25-3.138c-.1-.246-.23-.587-.38-1.024-.1.352-.23.698-.37 1.035l-1.29 3.127zm3.51.548h-3.74l-1.29 3.072h-.71l3.7-8.739h.41l3.63 8.739h-.73l-1.27-3.072zM95.829 74.177c-.02.441.16.87.48 1.165.78.547 1.83.547 2.6 0 .32-.311.49-.747.46-1.191.03-.462-.14-.917-.47-1.24a1.91 1.91 0 00-1.31-.414c-.47-.026-.94.133-1.29.443-.32.327-.49.777-.47 1.236m-.52 5.549c0 .889.7 1.333 2.1 1.333 1.79 0 2.69-.542 2.69-1.626a.904.904 0 00-.42-.846 2.664 2.664 0 00-1.36-.261h-1.12c-1.26 0-1.89.467-1.89 1.4m5.54-7.567v.411l-1.41.083c.36.403.56.924.56 1.465.02.578-.22 1.135-.66 1.515-.49.407-1.12.615-1.76.581-.22.005-.44-.007-.66-.036-.21.1-.41.248-.56.433a.804.804 0 00-.2.531c-.01.185.08.361.24.452.27.114.56.163.84.143h1.2c.59-.038 1.19.111 1.7.426.4.292.62.767.6 1.26.01.648-.33 1.255-.89 1.581-.76.413-1.63.605-2.5.555a3.602 3.602 0 01-2-.471 1.475 1.475 0 01-.7-1.309c-.02-.413.14-.814.43-1.106.33-.313.75-.522 1.19-.6a1.181 1.181 0 01-.49-.354.788.788 0 01-.19-.527c0-.431.29-.812.88-1.142a1.887 1.887 0 01-.93-.729 2.152 2.152 0 01.31-2.7 2.531 2.531 0 011.76-.587c.36-.012.71.031 1.05.126l2.19-.001zM106.637 72.558a2.097 2.097 0 00-1.58.615 2.786 2.786 0 00-.7 1.778h4.23c.03-.628-.15-1.25-.52-1.759a1.743 1.743 0 00-1.43-.634m.18 6.191c-.86.051-1.7-.265-2.32-.868a3.346 3.346 0 01-.83-2.436c-.05-.897.24-1.78.8-2.479a2.728 2.728 0 012.17-.932 2.4 2.4 0 011.91.8 3.2 3.2 0 01.7 2.166v.476h-4.93c-.04.737.19 1.465.66 2.037.49.489 1.16.745 1.85.7.34.004.69-.022 1.03-.077.38-.077.76-.189 1.12-.334v.536c-.34.146-.7.255-1.07.324-.36.06-.72.089-1.08.086M117.708 78.633v-4.2a1.968 1.968 0 00-.43-1.42 1.82 1.82 0 00-1.35-.444c-.65-.058-1.3.154-1.8.587a2.66 2.66 0 00-.57 1.9v3.577h-.62v-6.472h.53l.12.887h.04a2.618 2.618 0 012.37-1.011 2.086 2.086 0 012.33 2.363v4.233h-.62zM125.085 78.749a3.019 3.019 0 01-2.3-.876 3.448 3.448 0 01-.83-2.44c-.06-.915.26-1.814.86-2.5.63-.62 1.49-.947 2.36-.9a4.95 4.95 0 011.7.293l-.17.523a5.207 5.207 0 00-1.54-.279 2.389 2.389 0 00-1.9.735 3.113 3.113 0 00-.66 2.117c-.04.74.19 1.471.66 2.05.46.507 1.12.78 1.8.741.6.005 1.19-.102 1.74-.315v.548c-.54.221-1.13.324-1.72.3M129.137 72.158h.64l1.45 3.631c.44 1.116.72 1.868.84 2.256h.03c.18-.512.47-1.276.87-2.292l1.45-3.6h.64l-3.07 7.519c-.15.437-.36.853-.62 1.238-.16.205-.36.371-.59.484a1.92 1.92 0 01-.82.159 3.02 3.02 0 01-.8-.124v-.512c.26.064.53.096.79.094.2.004.4-.045.57-.143.18-.112.33-.263.44-.443.19-.303.34-.622.46-.953.18-.435.29-.718.34-.848l-2.62-6.466z" fill="#fff" fill-rule="nonzero"/></svg>
